<!DOCTYPE svg PUBLIC "-//W3C//DTD SVG 1.1//EN" "http://www.w3.org/Graphics/SVG/1.1/DTD/svg11.dtd">
<!-- Uploaded to: SVG Repo, www.svgrepo.com, Transformed by: SVG Repo Mixer Tools -->
<svg fill="#ffffff" height="800px" width="800px" version="1.1" id="Layer_1" xmlns="http://www.w3.org/2000/svg" xmlns:xlink="http://www.w3.org/1999/xlink" viewBox="0 0 512 512" xml:space="preserve" stroke="#ffffff">
<g id="SVGRepo_bgCarrier" stroke-width="0"/>
<g id="SVGRepo_tracerCarrier" stroke-linecap="round" stroke-linejoin="round"/>
<g id="SVGRepo_iconCarrier"> <g> <g> <path d="M479.235,238.135c-14.141,0-27.43-5.502-37.421-15.494c-9.99-9.99-15.493-23.276-15.493-37.408V36.749 c0-3.916-2.472-7.405-6.166-8.704l-21.119-7.428c-4.805-1.692-10.073,0.834-11.765,5.643c-1.69,4.807,0.837,10.075,5.643,11.766 l14.953,5.259v57.892l-61.851-20.717c1.359-6.34,2.062-12.818,2.062-19.363V22.255l18.051,6.349 c4.804,1.69,10.074-0.835,11.765-5.643c1.69-4.807-0.835-10.075-5.643-11.766L341.911,0.523c-2.824-0.994-5.953-0.555-8.394,1.175 c-2.442,1.73-3.894,4.537-3.894,7.529v51.869c0,7.698-1.184,15.282-3.519,22.546c-9.815,30.549-37.991,51.074-70.112,51.074 c-19.659,0-38.148-7.657-52.062-21.558c-8.251-8.25-14.489-18.457-18.04-29.518c-2.335-7.26-3.519-14.845-3.519-22.544V9.227 c0-2.993-1.452-5.8-3.894-7.529c-2.443-1.731-5.571-2.168-8.395-1.175L91.837,28.045c-3.693,1.299-6.165,4.788-6.165,8.704 v148.482c0,29.17-23.737,52.902-52.914,52.902c-5.096,0-9.227,4.131-9.227,9.227v143.852h-0.54c-5.096,0-9.227,4.131-9.227,9.227 v65.423c0,5.096,4.131,9.227,9.227,9.227h0.543v27.684c0,5.096,4.131,9.227,9.227,9.227h59.617c5.096,0,9.227-4.131,9.227-9.227 s-4.131-9.227-9.227-9.227H41.986v-18.457h63.337c5.096,0,9.227-4.131,9.227-9.227V400.44h0.001c0-5.096-4.131-9.227-9.227-9.227 H41.984V255.994c35.009-4.54,62.141-34.544,62.141-70.763v-64.588l13.31-4.459c4.833-1.619,7.437-6.848,5.818-11.68 s-6.849-7.437-11.68-5.818l-7.449,2.495V43.285l59.792-21.03v38.841c0,6.546,0.704,13.026,2.062,19.365l-25.253,8.459 c-4.833,1.619-7.437,6.848-5.818,11.68c1.293,3.859,4.89,6.299,8.748,6.299c0.972,0,1.96-0.155,2.932-0.48l25.056-8.393 c4.591,10.459,11.134,20.079,19.239,28.184c17.4,17.386,40.523,26.962,65.108,26.962c37.02,0,69.835-21.815,84.364-55.144 l67.514,22.613v64.592c0,19.063,7.422,36.982,20.898,50.457c11.278,11.278,25.671,18.315,41.243,20.312v113.514 c0,5.096,4.13,9.227,9.227,9.227s9.227-4.131,9.227-9.227V247.363C488.462,242.267,484.332,238.135,479.235,238.135z M96.098,409.667v46.968H32.217v-46.968h0.45c0.029,0,0.059,0.005,0.09,0.005s0.059-0.004,0.09-0.005H96.098z"/> </g> </g> <g> <g> <path d="M489.009,391.213h-82.334c-5.097,0-9.227,4.131-9.227,9.227v65.422c0,5.096,4.13,9.227,9.227,9.227h63.337v18.457H123.134 c-5.096,0-9.227,4.131-9.227,9.227s4.131,9.227,9.227,9.227h356.107c5.097,0,9.227-4.131,9.227-9.227V475.09h0.541 c5.097,0,9.227-4.131,9.227-9.227V400.44C498.236,395.344,494.105,391.213,489.009,391.213z M479.782,456.635h-63.88v-46.968 h63.88V456.635z"/> </g> </g> <g> <g> <path d="M212.189,238.966h-86.731c-5.096,0-9.227,4.131-9.227,9.227c0,5.096,4.131,9.227,9.227,9.227h86.731 c5.096,0,9.227-4.131,9.227-9.227C221.416,243.097,217.285,238.966,212.189,238.966z"/> </g> </g> <g> <g> <path d="M212.189,205.751h-86.731c-5.096,0-9.227,4.131-9.227,9.227s4.131,9.227,9.227,9.227h86.731 c5.096,0,9.227-4.131,9.227-9.227S217.285,205.751,212.189,205.751z"/> </g> </g> <g> <g> <path d="M403.079,205.489c-0.999-3.074-3.533-5.402-6.683-6.135l-32.663-7.607l-17.328-28.714c-1.669-2.768-4.666-4.46-7.9-4.46 s-6.229,1.692-7.9,4.46l-17.328,28.714l-32.663,7.607c-3.149,0.733-5.684,3.061-6.683,6.135c-1,3.074-0.316,6.448,1.8,8.891 l21.954,25.352l-2.859,33.414c-0.276,3.221,1.154,6.352,3.77,8.251c2.613,1.9,6.034,2.294,9.012,1.036l30.896-13.045 l30.896,13.045c1.154,0.487,2.374,0.727,3.587,0.727c1.919,0,3.822-0.598,5.424-1.762c2.616-1.9,4.045-5.031,3.77-8.251 l-2.859-33.414l21.954-25.352C403.396,211.937,404.08,208.563,403.079,205.489z M362.825,230.599 c-1.63,1.882-2.431,4.344-2.218,6.827l1.887,22.061l-20.399-8.613c-1.148-0.485-2.368-0.727-3.589-0.727s-2.441,0.242-3.589,0.727 l-20.399,8.613l1.887-22.061c0.213-2.481-0.588-4.944-2.218-6.827l-14.495-16.739l21.566-5.022 c2.426-0.565,4.52-2.087,5.807-4.219l11.442-18.959l11.442,18.959c1.287,2.132,3.381,3.654,5.807,4.219l21.566,5.022 L362.825,230.599z"/> </g> </g> </g>
</svg>