<!DOCTYPE svg PUBLIC "-//W3C//DTD SVG 1.1//EN" "http://www.w3.org/Graphics/SVG/1.1/DTD/svg11.dtd">
<!-- Uploaded to: SVG Repo, www.svgrepo.com, Transformed by: SVG Repo Mixer Tools -->
<svg fill="#ffffff" height="800px" width="800px" version="1.1" id="Layer_1" xmlns="http://www.w3.org/2000/svg" xmlns:xlink="http://www.w3.org/1999/xlink" viewBox="0 0 511.999 511.999" xml:space="preserve" stroke="#ffffff">
<g id="SVGRepo_bgCarrier" stroke-width="0"/>
<g id="SVGRepo_tracerCarrier" stroke-linecap="round" stroke-linejoin="round"/>
<g id="SVGRepo_iconCarrier"> <g> <g> <g> <path d="M362.664,149.331h-10.663v-20.804c0-12.056-9.808-21.865-21.864-21.865h-41.61c-12.057,0-21.865,9.809-21.865,21.865 v20.804h-31.996v-20.804c0-7.961-4.29-14.921-10.667-18.745V31.999C223.999,14.355,209.643,0,191.997,0 c-17.646,0-32.002,14.355-32.002,31.999v77.782c-6.377,3.824-10.667,10.784-10.667,18.745v20.804 c-11.762,0.001-21.331,9.571-21.331,21.333v320.003c0,11.762,9.571,21.333,21.334,21.333h213.333 c11.764,0,21.338-9.57,21.338-21.333V170.664C384.002,158.901,374.429,149.331,362.664,149.331z M288,128.527 c0-0.266,0.26-0.527,0.527-0.527h41.61c0.265,0,0.526,0.261,0.526,0.527v20.804H288V128.527z M181.332,31.999 c0-5.878,4.784-10.661,10.665-10.661c5.881,0,10.664,4.783,10.664,10.661v74.662h-21.329V31.999z M170.666,128.527 c0-0.266,0.26-0.527,0.525-0.527h41.612c0.265,0,0.525,0.261,0.525,0.527v20.804h-42.662V128.527z M149.335,490.667 l-0.003-319.998h10.661c0.002,0,0.003,0,0.004,0c0.002,0,0.003,0,0.004,0l63.967-0.001c0.011,0,0.019,0.001,0.029,0.001 c0.011,0,0.019-0.001,0.029-0.001l53.254-0.001c0.017,0,0.033,0.002,0.05,0.002c0.017,0,0.032-0.002,0.049-0.002l63.878-0.001 c0.025,0,0.049,0.003,0.074,0.003s0.049-0.003,0.074-0.003l21.259-0.001l0.002,319.998L149.335,490.667z"/> <path d="M341.335,202.664L341.335,202.664c0-5.892-4.778-10.669-10.669-10.669H181.33c-5.892,0-10.669,4.776-10.669,10.669 v85.332c0,5.892,4.776,10.669,10.669,10.669h149.336c5.891,0,10.669-4.776,10.669-10.669v-42.621 c0-0.014,0.002-0.027,0.002-0.041s-0.002-0.028-0.002-0.042V202.664z M319.998,234.664l-65.102-0.004c0,0,0,0-0.001,0 c-5.89,0-10.668,4.776-10.669,10.668c0,5.892,4.776,10.669,10.669,10.67l65.103,0.004v21.326H191.999v0v-63.995h127.999V234.664z "/> <path d="M223.998,256.003h0.254c5.891,0,10.669-4.776,10.669-10.669c0-5.892-4.778-10.669-10.669-10.669h-0.254 c-5.892,0-10.669,4.776-10.669,10.669C213.329,251.226,218.106,256.003,223.998,256.003z"/> <path d="M298.842,341.335c5.891,0,10.669-4.776,10.669-10.669c0-5.892-4.777-10.669-10.669-10.669h-85.684 c-5.892,0-10.669,4.776-10.669,10.669c0,5.892,4.776,10.669,10.669,10.669H298.842z"/> <path d="M330.669,362.664H181.332c-5.892,0-10.669,4.776-10.669,10.669c0,5.892,4.776,10.669,10.669,10.669h149.336 c5.891,0,10.669-4.776,10.669-10.669C341.337,367.44,336.56,362.664,330.669,362.664z"/> <path d="M298.842,447.994h-85.684c-5.892,0-10.669,4.776-10.669,10.669s4.776,10.669,10.669,10.669h85.684 c5.891,0,10.669-4.776,10.669-10.669S304.733,447.994,298.842,447.994z"/> <path d="M330.669,405.324h-0.256c-5.892,0-10.669,4.776-10.669,10.669s4.776,10.669,10.669,10.669h0.256 c5.891,0,10.669-4.776,10.669-10.669C341.337,410.1,336.56,405.324,330.669,405.324z"/> <path d="M299.768,405.328H181.332c-5.892,0-10.669,4.776-10.669,10.669c0,5.892,4.776,10.669,10.669,10.669h118.435 c5.891,0,10.669-4.776,10.669-10.669C310.436,410.105,305.659,405.328,299.768,405.328z"/> </g> </g> </g> </g>
</svg>